<svg width="32" height="32" viewBox="0 0 32 32" fill="none" xmlns="http://www.w3.org/2000/svg">
  <defs>
    <linearGradient id="catZipGrad" x1="0%" y1="0%" x2="100%" y2="100%">
      <stop offset="0%" stop-color="#FBBF24"/>
      <stop offset="100%" stop-color="#D97706"/>
    </linearGradient>
  </defs>
  <path d="M3 8C3 6.89543 3.89543 6 5 6H12L15 9H27C28.1046 9 29 9.89543 29 11V25C29 26.1046 28.1046 27 27 27H5C3.89543 27 3 26.1046 3 25V8Z" fill="url(#catZipGrad)" stroke="#B45309" stroke-width="1.2"/>
  <rect x="14" y="9" width="4" height="18" fill="#E2E8F0" stroke="#64748B" stroke-width="0.8"/>
  <line x1="14" y1="12" x2="18" y2="12" stroke="#475569" stroke-width="1"/>
  <line x1="14" y1="15" x2="18" y2="15" stroke="#475569" stroke-width="1"/>
  <line x1="14" y1="18" x2="18" y2="18" stroke="#475569" stroke-width="1"/>
  <rect x="13.5" y="20" width="5" height="5" rx="1" fill="#F59E0B" stroke="#78350F" stroke-width="1"/>
</svg>
