<svg width="48" height="48" viewBox="0 0 48 48" fill="none" xmlns="http://www.w3.org/2000/svg">
  <defs>
    <linearGradient id="docGrad" x1="0%" y1="0%" x2="100%" y2="100%">
      <stop offset="0%" stop-color="#FFFFFF"/>
      <stop offset="60%" stop-color="#F1F5F9"/>
      <stop offset="100%" stop-color="#E2E8F0"/>
    </linearGradient>
    <linearGradient id="foldGrad" x1="0%" y1="0%" x2="100%" y2="100%">
      <stop offset="0%" stop-color="#CBD5E1"/>
      <stop offset="100%" stop-color="#94A3B8"/>
    </linearGradient>
    <linearGradient id="greenPlusGrad" x1="0%" y1="0%" x2="100%" y2="100%">
      <stop offset="0%" stop-color="#34D399"/>
      <stop offset="50%" stop-color="#10B981"/>
      <stop offset="100%" stop-color="#047857"/>
    </linearGradient>
  </defs>
  <!-- Document Body -->
  <path d="M8 6C8 4.34315 9.34315 3 11 3H27L38 14V42C38 43.6569 36.6569 45 35 45H11C9.34315 45 8 43.6569 8 42V6Z" fill="url(#docGrad)" stroke="#64748B" stroke-width="1.5"/>
  <path d="M27 3V12C27 13.1046 27.8954 14 29 14H38" fill="url(#foldGrad)" stroke="#64748B" stroke-width="1.5"/>
  <rect x="14" y="18" width="18" height="2.5" rx="1.25" fill="#3B82F6"/>
  <rect x="14" y="24" width="14" height="2" rx="1" fill="#94A3B8"/>
  <rect x="14" y="29" width="11" height="2" rx="1" fill="#CBD5E1"/>
  <!-- Green Plus Badge -->
  <circle cx="34" cy="34" r="12" fill="url(#greenPlusGrad)" stroke="#065F46" stroke-width="1.5"/>
  <ellipse cx="34" cy="28" rx="7" ry="3" fill="white" opacity="0.35"/>
  <path d="M34 27V41M27 34H41" stroke="white" stroke-width="3.5" stroke-linecap="round"/>
</svg>
