<svg width="48" height="48" viewBox="0 0 48 48" fill="none" xmlns="http://www.w3.org/2000/svg">
  <defs>
    <linearGradient id="gearGrad" x1="0%" y1="0%" x2="100%" y2="100%">
      <stop offset="0%" stop-color="#94A3B8"/>
      <stop offset="50%" stop-color="#64748B"/>
      <stop offset="100%" stop-color="#475569"/>
    </linearGradient>
    <linearGradient id="goldGearGrad" x1="0%" y1="0%" x2="100%" y2="100%">
      <stop offset="0%" stop-color="#FDE047"/>
      <stop offset="50%" stop-color="#EAB308"/>
      <stop offset="100%" stop-color="#CA8A04"/>
    </linearGradient>
  </defs>
  <!-- Back Metallic Gear -->
  <path d="M21 4H27V9.1C28.2 9.5 29.4 10.1 30.4 10.9L34.1 7.2L38.3 11.4L34.6 15.1C35.4 16.1 36 17.3 36.4 18.5H41.5V24.5H36.4C36 25.7 35.4 26.9 34.6 27.9L38.3 31.6L34.1 35.8L30.4 32.1C29.4 32.9 28.2 33.5 27 33.9V39H21V33.9C19.8 33.5 18.6 32.9 17.6 32.1L13.9 35.8L9.7 31.6L13.4 27.9C12.6 26.9 12 25.7 11.6 24.5H6.5V18.5H11.6C12 17.3 12.6 16.1 13.4 15.1L9.7 11.4L13.9 7.2L17.6 10.9C18.6 10.1 19.8 9.5 21 9.1V4Z" fill="url(#gearGrad)" stroke="#334155" stroke-width="1.5"/>
  <circle cx="24" cy="21.5" r="7.5" fill="#F8FAFC" stroke="#334155" stroke-width="1.5"/>
  <!-- Front Gold Mini Gear -->
  <circle cx="34" cy="33" r="10" fill="url(#goldGearGrad)" stroke="#854D0E" stroke-width="1.5"/>
  <circle cx="34" cy="33" r="4" fill="#FEF08A" stroke="#854D0E" stroke-width="1.5"/>
</svg>
